<svg width="26" height="26" viewBox="0 0 26 26" fill="none" xmlns="http://www.w3.org/2000/svg">
<circle cx="13" cy="13" r="13" fill="#E58C06"/>
<path d="M14.75 6V9C14.75 9.19891 14.829 9.38968 14.9697 9.53033C15.1103 9.67098 15.3011 9.75 15.5 9.75H18.5" stroke="white" stroke-width="1.5" stroke-linecap="round" stroke-linejoin="round"/>
<path d="M11 9H11.75M11 13.5H15.5M14 16.5H15.5M17 19.5H9.5C9.10218 19.5 8.72064 19.342 8.43934 19.0607C8.15804 18.7794 8 18.3978 8 18V7.5C8 7.10218 8.15804 6.72064 8.43934 6.43934C8.72064 6.15804 9.10218 6 9.5 6H14.75L18.5 9.75V18C18.5 18.3978 18.342 18.7794 18.0607 19.0607C17.7794 19.342 17.3978 19.5 17 19.5Z" stroke="white" stroke-width="1.5" stroke-linecap="round" stroke-linejoin="round"/>
</svg>
