<svg width="22" height="22" viewBox="0 0 22 22" fill="none" xmlns="http://www.w3.org/2000/svg">
<path d="M21 11H1M11 1V21M12 11C12 12.0609 12.4214 13.0783 13.1716 13.8284C13.9217 14.5786 14.9391 15 16 15M10 11C10 12.0609 9.57857 13.0783 8.82843 13.8284C8.07828 14.5786 7.06087 15 6 15" stroke="white" stroke-width="1.5" stroke-linecap="round"/>
<path d="M11.0007 9.03743C11.0013 8.31337 11.2436 7.61023 11.6893 7.03958C12.1349 6.46892 12.7584 6.06343 13.4607 5.88743C15.0637 5.48743 16.5167 6.93943 16.1157 8.54343C15.9397 9.24577 15.5342 9.86922 14.9636 10.3149C14.3929 10.7605 13.6898 11.0029 12.9657 11.0034H11.0007M11.0007 9.03743V11.0034M11.0007 9.03743C11.0002 8.31337 10.7578 7.61023 10.3122 7.03958C9.86654 6.46892 9.24308 6.06343 8.54074 5.88743C6.93774 5.48743 5.48474 6.93943 5.88574 8.54343C6.06174 9.24577 6.46724 9.86922 7.0379 10.3149C7.60855 10.7605 8.31169 11.0029 9.03574 11.0034H11.0007" stroke="white" stroke-width="1.5"/>
<path d="M21 11C21 15.714 21 18.071 19.535 19.535C18.072 21 15.714 21 11 21C6.286 21 3.929 21 2.464 19.535C1 18.072 1 15.714 1 11C1 6.286 1 3.929 2.464 2.464C3.93 1 6.286 1 11 1C15.714 1 18.071 1 19.535 2.464C20.509 3.438 20.835 4.807 20.945 7" stroke="white" stroke-width="1.5" stroke-linecap="round"/>
</svg>
