<svg width="52" height="52" viewBox="0 0 52 52" fill="none" xmlns="http://www.w3.org/2000/svg">
<circle cx="26" cy="26" r="26" transform="matrix(-1 0 0 1 52 0)" fill="#381F8C"/>
<path d="M20.1693 21.8281L24.8359 11.3281C25.7642 11.3281 26.6544 11.6969 27.3108 12.3533C27.9672 13.0096 28.3359 13.8999 28.3359 14.8281V19.4948H34.9393C35.2775 19.491 35.6125 19.5607 35.9211 19.6992C36.2297 19.8377 36.5045 20.0416 36.7264 20.2969C36.9484 20.5521 37.1122 20.8526 37.2065 21.1774C37.3008 21.5023 37.3234 21.8437 37.2726 22.1781L35.6626 32.6781C35.5782 33.2345 35.2956 33.7417 34.8668 34.1061C34.438 34.4706 33.892 34.6678 33.3293 34.6615H20.1693M20.1693 21.8281V34.6615M20.1693 21.8281H16.6693C16.0504 21.8281 15.4569 22.074 15.0194 22.5115C14.5818 22.9491 14.3359 23.5426 14.3359 24.1615V32.3281C14.3359 32.947 14.5818 33.5405 15.0194 33.978C15.4569 34.4156 16.0504 34.6615 16.6693 34.6615H20.1693" stroke="white" stroke-width="3.33333" stroke-linecap="round" stroke-linejoin="round"/>
</svg>
