<svg width="42" height="41" viewBox="0 0 42 41" fill="none" xmlns="http://www.w3.org/2000/svg">
<rect x="1" y="0.5" width="40" height="40" rx="20" stroke="#221354"/>
<path d="M13 26.1C13 27.46 14.04 28.5 15.4 28.5H26.6C27.96 28.5 29 27.46 29 26.1V19.7H13V26.1ZM26.6 14.1H25V13.3C25 12.82 24.68 12.5 24.2 12.5C23.72 12.5 23.4 12.82 23.4 13.3V14.1H18.6V13.3C18.6 12.82 18.28 12.5 17.8 12.5C17.32 12.5 17 12.82 17 13.3V14.1H15.4C14.04 14.1 13 15.14 13 16.5V18.1H29V16.5C29 15.14 27.96 14.1 26.6 14.1Z" fill="#221354"/>
</svg>
