<svg width="12" height="9" viewBox="0 0 12 9" fill="none" xmlns="http://www.w3.org/2000/svg">
<path d="M0.600361 9H11.4007C11.51 8.99965 11.6172 8.96944 11.7107 8.91262C11.8042 8.85579 11.8804 8.7745 11.9312 8.67749C11.982 8.58049 12.0054 8.47144 11.9989 8.36209C11.9925 8.25274 11.9564 8.14723 11.8945 8.05692L6.49433 0.242983C6.27052 -0.0809944 5.73171 -0.0809944 5.5073 0.242983L0.107147 8.05692C0.0446404 8.14704 0.00798496 8.25261 0.00116339 8.36214C-0.00565818 8.47167 0.0176151 8.58098 0.0684546 8.67819C0.119294 8.7754 0.195755 8.8568 0.289531 8.91353C0.383307 8.97027 0.49081 9.00017 0.600361 9Z" fill="#140B31"/>
</svg>
