<svg width="24" height="24" viewBox="0 0 24 24" fill="none" xmlns="http://www.w3.org/2000/svg">
<path d="M14.5 16.25H9.5C9.36614 16.25 9.25 16.1339 9.25 16C9.25 15.8661 9.36614 15.75 9.5 15.75H14.5C14.6339 15.75 14.75 15.8661 14.75 16C14.75 16.1339 14.6339 16.25 14.5 16.25Z" fill="#381F8C" stroke="#381F8C"/>
<path d="M4.96927 9.61684L4.97086 9.61307L6.8289 5.17776C6.84469 5.14201 6.85982 5.10561 6.8701 5.08086C6.87369 5.0722 6.8767 5.06497 6.87893 5.0597C6.88573 5.04362 6.88915 5.03638 6.89015 5.03428L6.90531 5.00902L6.91836 4.97895C7.64009 3.31604 8.41566 2.39669 9.31883 1.99867C10.2166 1.60302 11.3707 1.66588 12.9908 2.28677L12.9908 2.2868L12.9968 2.28905C13.0476 2.30773 13.0986 2.35207 13.1289 2.42391C13.1564 2.48934 13.1566 2.55888 13.1295 2.62438L10.2019 9.41873C10.1603 9.51034 10.0679 9.56988 9.9697 9.56988H7.1197C6.48281 9.56988 5.87656 9.6933 5.29488 9.93939L5.29484 9.93932L5.28663 9.94297C5.26472 9.95271 5.23444 9.95988 5.1997 9.95988C5.15155 9.95988 5.08347 9.93911 5.01779 9.88067C4.95262 9.81079 4.93305 9.70134 4.96927 9.61684ZM7.36025 5.20262L7.35198 5.22188L7.35159 5.22305C7.3481 5.23002 7.34115 5.24395 7.33423 5.25905C7.32856 5.27141 7.32132 5.28794 7.31393 5.30759L6.00891 8.40578L5.68565 9.17322L6.51496 9.09782C6.72069 9.07912 6.91557 9.06988 7.1197 9.06988H9.4697H9.79885L9.92897 8.76753L12.339 3.16753L12.5569 2.66116L12.0317 2.49355C11.523 2.33119 11.0512 2.24988 10.6097 2.24988C9.85987 2.24988 9.23448 2.50292 8.69696 3.02681C8.18158 3.52913 7.76283 4.26497 7.36025 5.20262Z" fill="#381F8C" stroke="#381F8C"/>
<path d="M18.2902 10.2686C18.2202 10.2686 18.1402 10.2586 18.0702 10.2386C17.7002 10.1286 17.2902 10.0686 16.8702 10.0686H9.97023C9.72023 10.0686 9.48023 9.93856 9.34023 9.72856C9.21023 9.51856 9.18023 9.24856 9.28023 9.01856L12.1802 2.28856C12.3302 1.92856 12.7602 1.68856 13.1402 1.80856C13.2602 1.84856 13.3702 1.89856 13.4902 1.94856L15.8502 2.93856C17.2302 3.50856 18.1502 4.10856 18.7502 4.82856C18.8702 4.96856 18.9702 5.11856 19.0602 5.26856C19.1702 5.43856 19.2702 5.64856 19.3402 5.85856C19.3702 5.92856 19.4202 6.05856 19.4502 6.19856C19.7302 7.13856 19.5902 8.30856 18.9902 9.80856C18.8702 10.0886 18.5902 10.2686 18.2902 10.2686ZM11.1102 8.56856H16.8802C17.2002 8.56856 17.5102 8.59856 17.8202 8.64856C18.1002 7.77856 18.1602 7.10856 18.0002 6.56856C17.9802 6.47856 17.9602 6.43856 17.9502 6.39856C17.8902 6.23856 17.8502 6.14856 17.8002 6.06856C17.7302 5.95856 17.6802 5.86856 17.6002 5.77856C17.1702 5.25856 16.4102 4.77856 15.2802 4.31856L13.3002 3.48856L11.1102 8.56856Z" fill="#381F8C"/>
<path d="M15.9 22.7503H8.1C7.82 22.7503 7.56 22.7303 7.3 22.7003C3.79 22.4603 1.79 20.4603 1.55 16.9103C1.52 16.6903 1.5 16.4203 1.5 16.1503V14.2003C1.5 11.9503 2.84 9.92031 4.91 9.02031C5.61 8.72031 6.36 8.57031 7.13 8.57031H16.89C17.46 8.57031 18.01 8.65031 18.52 8.81031C20.87 9.52031 22.52 11.7403 22.52 14.2003V16.1503C22.52 16.3703 22.51 16.5803 22.5 16.7803C22.28 20.6903 20 22.7503 15.9 22.7503ZM7.12 10.0703C6.55 10.0703 6.01 10.1803 5.49 10.4003C3.97 11.0603 2.99 12.5503 2.99 14.2003V16.1503C2.99 16.3603 3.01 16.5703 3.03 16.7703C3.22 19.6203 4.62 21.0203 7.43 21.2103C7.68 21.2403 7.88 21.2603 8.09 21.2603H15.89C19.19 21.2603 20.81 19.8103 20.97 16.7103C20.98 16.5303 20.99 16.3503 20.99 16.1503V14.2003C20.99 12.3903 19.78 10.7703 18.06 10.2403C17.69 10.1303 17.28 10.0703 16.86 10.0703H7.12Z" fill="#381F8C"/>
<path d="M2.24023 14.9518C1.83023 14.9518 1.49023 14.6118 1.49023 14.2018V11.2718C1.49023 8.12175 3.72023 5.40175 6.80023 4.80175C7.07023 4.75175 7.35023 4.85175 7.53023 5.06175C7.70023 5.27175 7.75023 5.57175 7.64023 5.82175L5.89023 10.0018C5.81023 10.1818 5.67023 10.3218 5.50023 10.4018C3.98023 11.0618 3.00023 12.5518 3.00023 14.2018C2.99023 14.6118 2.66023 14.9518 2.24023 14.9518ZM5.60023 6.82175C4.32023 7.54175 3.39023 8.80175 3.10023 10.2718C3.54023 9.82175 4.05023 9.44175 4.63023 9.16175L5.60023 6.82175Z" fill="#381F8C"/>
<path d="M21.7592 14.9498C21.3492 14.9498 21.0092 14.6098 21.0092 14.1998C21.0092 12.3898 19.7992 10.7698 18.0792 10.2398C17.8792 10.1798 17.7092 10.0398 17.6192 9.84978C17.5292 9.65978 17.5192 9.43978 17.5992 9.24978C18.0692 8.07978 18.1892 7.22978 17.9992 6.56978C17.9792 6.47978 17.9592 6.43978 17.9492 6.39978C17.8192 6.10978 17.8892 5.76978 18.1192 5.54978C18.3492 5.32978 18.6992 5.27978 18.9792 5.42978C21.1592 6.56978 22.5092 8.80978 22.5092 11.2698V14.1998C22.5092 14.6098 22.1692 14.9498 21.7592 14.9498ZM19.2492 9.08978C19.8792 9.37978 20.4392 9.78978 20.9092 10.2798C20.7192 9.29978 20.2492 8.40978 19.5592 7.70978C19.5092 8.12978 19.4092 8.58978 19.2492 9.08978Z" fill="#381F8C"/>
</svg>
