<svg width="24" height="24" viewBox="0 0 24 24" fill="none" xmlns="http://www.w3.org/2000/svg">
<path d="M12 0C5.37258 0 0 5.37258 0 12C0 18.6274 5.37258 24 12 24C18.6274 24 24 18.6274 24 12C24 5.37258 18.6274 0 12 0ZM12 1.60334C17.7421 1.60334 22.3967 6.25788 22.3967 12C22.3967 17.7421 17.7421 22.3974 12 22.3974C6.25788 22.3974 1.60258 17.7421 1.60258 12C1.60258 6.25788 6.25788 1.60334 12 1.60334ZM18.4475 10.8233C18.7929 11.1499 18.7821 11.6182 18.5243 11.9491C18.2088 12.2818 17.7117 12.296 17.3985 12.0258C16.4202 11.1381 15.3496 10.3075 14.3537 9.39042C14.3507 9.42962 14.0837 9.21416 13.9699 9.2113C13.8676 9.2113 13.8164 9.3307 13.8164 9.5695C13.8666 10.555 13.7934 11.5955 13.906 12.5503C13.9486 12.9 13.9699 13.1004 13.9699 13.1516L15.1213 19.7017C15.1873 20.3032 14.8585 20.7525 14.3281 20.8531C13.797 20.9975 13.2512 20.5395 13.1768 20.0599C13.1768 20.0599 12.2479 14.771 12.2301 14.6868C12.2123 14.6025 12.1809 14.136 11.9998 14.1111C11.7671 14.1955 11.7941 14.5873 11.7695 14.6868C11.7449 14.7862 10.8228 20.0599 10.8228 20.0599C10.6672 20.6148 10.1888 20.9427 9.6714 20.8531C9.08016 20.7052 8.79116 20.2327 8.87824 19.7017L10.0296 13.126C10.1996 11.9106 10.1575 10.8234 10.1575 9.59508C10.1575 9.3562 10.1106 9.23253 10.0168 9.22408C9.92301 9.21555 9.79934 9.27951 9.64582 9.41598L6.60102 12.0258C6.24526 12.2909 5.74792 12.2467 5.47522 11.949C5.19954 11.5551 5.21718 11.1289 5.55198 10.8232L9.54344 7.29232C9.73111 7.17291 9.90596 7.09188 10.068 7.04924C10.2301 7.0066 10.4305 6.98528 10.6692 6.98528H13.3302C13.569 6.98528 13.7695 7.0066 13.9315 7.04924C14.0936 7.09189 14.2684 7.18145 14.456 7.3179C15.7269 8.43264 17.0761 9.63196 18.4475 10.8233ZM13.7606 4.76652C13.7606 5.73308 12.9771 6.51662 12.0105 6.51662C11.044 6.51662 10.2604 5.73308 10.2604 4.76652C10.2604 3.79996 11.044 3.01644 12.0105 3.01644C12.9771 3.01642 13.7606 3.79998 13.7606 4.76652Z" fill="#381F8C"/>
</svg>
