<svg width="26" height="26" viewBox="0 0 26 26" fill="none" xmlns="http://www.w3.org/2000/svg">
<path d="M19.5007 10.832H15.1673V6.4987C15.1673 5.92406 14.939 5.37296 14.5327 4.96663C14.1264 4.5603 13.5753 4.33203 13.0007 4.33203C12.426 4.33203 11.8749 4.5603 11.4686 4.96663C11.0623 5.37296 10.834 5.92406 10.834 6.4987L10.9109 10.832H6.50065C5.92602 10.832 5.37492 11.0603 4.96859 11.4666C4.56226 11.873 4.33398 12.4241 4.33398 12.9987C4.33398 13.5733 4.56226 14.1244 4.96859 14.5308C5.37492 14.9371 5.92602 15.1654 6.50065 15.1654L10.9109 15.0884L10.834 19.4987C10.834 20.0733 11.0623 20.6244 11.4686 21.0308C11.8749 21.4371 12.426 21.6654 13.0007 21.6654C13.5753 21.6654 14.1264 21.4371 14.5327 21.0308C14.939 20.6244 15.1673 20.0733 15.1673 19.4987V15.0884L19.5007 15.1654C20.0753 15.1654 20.6264 14.9371 21.0327 14.5308C21.439 14.1244 21.6673 13.5733 21.6673 12.9987C21.6673 12.4241 21.439 11.873 21.0327 11.4666C20.6264 11.0603 20.0753 10.832 19.5007 10.832Z" fill="white"/>
</svg>
