<svg width="52" height="52" viewBox="0 0 52 52" fill="none" xmlns="http://www.w3.org/2000/svg">
<circle cx="26" cy="26" r="26" transform="matrix(-1 0 0 1 52 0)" fill="#381F8C"/>
<path d="M27.325 18.275H24.825V14.75H27.325V18.275ZM27.325 36.5H24.825V32.925H27.325V36.5ZM26.275 34.25C24.625 34.25 23.2333 34.0167 22.1 33.55C20.9833 33.0833 20.1417 32.425 19.575 31.575C19.0083 30.7083 18.725 29.6917 18.725 28.525V28.375H21.425V28.775C21.425 29.4417 21.575 30 21.875 30.45C22.175 30.8833 22.675 31.2167 23.375 31.45C24.075 31.6667 25.0417 31.775 26.275 31.775C27.3417 31.775 28.1917 31.7 28.825 31.55C29.4583 31.3833 29.9083 31.1333 30.175 30.8C30.4583 30.45 30.6 30.0167 30.6 29.5C30.6 28.7667 30.3667 28.2333 29.9 27.9C29.4333 27.5667 28.675 27.3 27.625 27.1L23.525 26.425C22.5917 26.2417 21.7583 25.975 21.025 25.625C20.2917 25.2583 19.7167 24.775 19.3 24.175C18.9 23.5583 18.7 22.7917 18.7 21.875C18.7 21.275 18.8333 20.6833 19.1 20.1C19.3667 19.5167 19.7833 18.9917 20.35 18.525C20.9167 18.0583 21.65 17.6917 22.55 17.425C23.4667 17.1417 24.5833 17 25.9 17C27.5333 17 28.875 17.25 29.925 17.75C30.975 18.25 31.75 18.9333 32.25 19.8C32.7667 20.65 33.025 21.625 33.025 22.725V22.875H30.35V22.55C30.35 21.8667 30.2 21.3 29.9 20.85C29.6 20.3833 29.1083 20.0417 28.425 19.825C27.7417 19.5917 26.8167 19.475 25.65 19.475C24.6333 19.475 23.8083 19.5583 23.175 19.725C22.5583 19.8917 22.1083 20.1417 21.825 20.475C21.5417 20.7917 21.4 21.2083 21.4 21.725C21.4 22.1917 21.5 22.575 21.7 22.875C21.9 23.175 22.2083 23.4167 22.625 23.6C23.0417 23.7667 23.575 23.925 24.225 24.075L28.3 24.775C29.4167 24.975 30.3417 25.275 31.075 25.675C31.825 26.075 32.3833 26.5833 32.75 27.2C33.1167 27.8167 33.3 28.5333 33.3 29.35C33.3 30.2 33.0583 31 32.575 31.75C32.0917 32.5 31.3333 33.1083 30.3 33.575C29.2667 34.025 27.925 34.25 26.275 34.25Z" fill="white"/>
</svg>
